<?xml version="1.0" encoding="UTF-8"?>
<svg width="176px" height="146px" viewBox="0 0 176 146" version="1.1" xmlns="http://www.w3.org/2000/svg" xmlns:xlink="http://www.w3.org/1999/xlink">
    <!-- Generator: Sketch 59.1 (86144) - https://sketch.com -->
    <title>squarespace-logo</title>
    <desc>Created with Sketch.</desc>
    <g id="squarespace-logo" stroke="none" stroke-width="1" fill="none" fill-rule="evenodd">
        <g id="squarespace-logo-vector" fill="#222222" fill-rule="nonzero">
            <path d="M67.97266,97.21484 C67.97266,98.66894 67.19239,99.41015 65.9668,99.41015 C64.70215,99.41015 63.93164,98.60253 63.93164,97.16699 L63.93164,93.3457 L63.18066,93.3457 L63.18066,97.21484 C63.18066,99.09668 64.30273,100.10449 65.94726,100.10449 C67.61132,100.10449 68.72363,99.09668 68.72363,97.15722 L68.72363,93.3457 L67.97265,93.3457 L67.97265,97.21484 L67.97266,97.21484 Z M73.48047,93.29785 L70.44824,100 L71.21777,100 L72.00683,98.24121 L75.6289,98.24121 L76.4082,100 L77.21679,100 L74.18456,93.29785 L73.48047,93.29785 Z M72.30176,97.55664 L73.82324,94.17285 L75.33398,97.55664 L72.30176,97.55664 Z M104.31738,93.3457 L101.82617,93.3457 L101.82617,100 L102.57715,100 L102.57715,97.65234 L104.19336,97.65234 C105.61035,97.65234 106.80762,96.91015 106.80762,95.47461 L106.80762,95.45606 C106.80762,94.14453 105.81934,93.3457 104.31738,93.3457 Z M106.04785,95.50391 C106.04785,96.37793 105.32519,96.96778 104.22265,96.96778 L102.57714,96.96778 L102.57714,94.04005 L104.25976,94.04005 C105.33398,94.04005 106.04785,94.53419 106.04785,95.48439 L106.04785,95.50391 Z M60.61133,96.67285 L60.61133,96.65332 C60.61133,94.81934 59.25195,93.23144 57.22656,93.23144 C55.20215,93.23144 53.82324,94.83789 53.82324,96.67285 L53.82324,96.6914 C53.82324,98.52636 55.18262,100.11425 57.20801,100.11425 C58.02539,100.11425 58.73828,99.84765 59.29883,99.41015 L60.18262,100.19921 L60.69629,99.63866 L59.82227,98.89745 C60.31641,98.28906 60.61133,97.5 60.61133,96.67285 Z M59.27051,98.43164 L58.02539,97.2998 L57.52148,97.86132 L58.7666,98.92577 C58.34863,99.23925 57.8164,99.41991 57.22656,99.41991 C55.70605,99.41991 54.60254,98.18456 54.60254,96.67284 L54.60254,96.65331 C54.60254,95.14257 55.68652,93.92577 57.20801,93.92577 C58.72852,93.92577 59.83106,95.16112 59.83106,96.67284 L59.83106,96.69139 C59.83106,97.35742 59.63184,97.95605 59.27051,98.43164 Z M49.52148,96.31152 C48.05761,95.99804 47.71582,95.64648 47.71582,95.01855 L47.71582,95 C47.71582,94.40039 48.2666,93.92578 49.13184,93.92578 C49.81641,93.92578 50.43457,94.14453 51.05274,94.64844 L51.48926,94.06836 C50.81446,93.52637 50.1211,93.25098 49.15137,93.25098 C47.88672,93.25098 46.96485,94.02051 46.96485,95.06641 L46.96485,95.08496 C46.96485,96.17871 47.66797,96.67285 49.19825,97.00586 C50.59571,97.29981 50.92872,97.65234 50.92872,98.26953 L50.92872,98.28906 C50.92872,98.94433 50.33888,99.41992 49.44532,99.41992 C48.52344,99.41992 47.85841,99.10644 47.16407,98.47949 L46.69825,99.03027 C47.49708,99.74316 48.36231,100.09472 49.417,100.09472 C50.73829,100.09472 51.68946,99.35351 51.68946,98.21288 L51.68946,98.19335 C51.68946,97.17676 51.00488,96.63477 49.52148,96.31152 Z M124.89258,99.31543 L124.89258,96.98633 L128.52442,96.98633 L128.52442,96.30176 L124.89258,96.30176 L124.89258,94.03028 L128.95215,94.03028 L128.95215,93.3457 L124.1416,93.3457 L124.1416,100 L129,100 L129,99.31543 L124.89258,99.31543 Z M97.08789,96.31152 C95.62402,95.99804 95.28125,95.64648 95.28125,95.01855 L95.28125,95 C95.28125,94.40039 95.83301,93.92578 96.69824,93.92578 C97.38281,93.92578 98,94.14453 98.61816,94.64844 L99.05566,94.06836 C98.38086,93.52637 97.68652,93.25098 96.71679,93.25098 C95.45214,93.25098 94.53027,94.02051 94.53027,95.06641 L94.53027,95.08496 C94.53027,96.17871 95.23437,96.67285 96.76465,97.00586 C98.16211,97.29981 98.49414,97.65234 98.49414,98.26953 L98.49414,98.28906 C98.49414,98.94433 97.90527,99.41992 97.01172,99.41992 C96.08984,99.41992 95.42383,99.10644 94.73047,98.47949 L94.26465,99.03027 C95.06249,99.74316 95.92774,100.09472 96.9834,100.09472 C98.30469,100.09472 99.25488,99.35351 99.25488,98.21288 L99.25488,98.19335 C99.25488,97.17676 98.57031,96.63477 97.08789,96.31152 Z M88.04297,96.98633 L91.67481,96.98633 L91.67481,96.30176 L88.04297,96.30176 L88.04297,94.03028 L92.10254,94.03028 L92.10254,93.3457 L87.29199,93.3457 L87.29199,100 L92.14941,100 L92.14941,99.31543 L88.04296,99.31543 L88.04296,96.98633 L88.04297,96.98633 Z M110.63477,93.29785 L107.60254,100 L108.37207,100 L109.16113,98.24121 L112.7832,98.24121 L113.56249,100 L114.37109,100 L111.33886,93.29785 L110.63477,93.29785 Z M109.45605,97.55664 L110.97753,94.17285 L112.48827,97.55664 L109.45605,97.55664 Z M119.05176,99.41992 C117.58789,99.41992 116.47559,98.21289 116.47559,96.67285 L116.47559,96.65332 C116.47559,95.12305 117.57911,93.92578 119.05176,93.92578 C119.95508,93.92578 120.58301,94.30566 121.14356,94.83789 L121.65723,94.28711 C120.99121,93.65918 120.26856,93.23145 119.06153,93.23145 C117.10352,93.23145 115.6963,94.79102 115.6963,96.67286 L115.6963,96.69141 C115.6963,98.60254 117.11329,100.11426 119.03321,100.11426 C120.24024,100.11426 121.00098,99.64844 121.69532,98.94434 L121.2002,98.45996 C120.56348,99.06836 119.96484,99.41992 119.05176,99.41992 Z M84.59766,95.3418 L84.59766,95.32325 C84.59766,94.79981 84.40723,94.33399 84.08399,94.01075 C83.66602,93.59278 83.00977,93.34571 82.19239,93.34571 L79.33106,93.34571 L79.33106,100 L80.08204,100 L80.08204,97.41406 L81.98341,97.41406 L83.91309,100 L84.83497,100 L82.79102,97.28125 C83.83691,97.09082 84.59766,96.44434 84.59766,95.3418 Z M80.08203,96.73926 L80.08203,94.04004 L82.13574,94.04004 C83.20996,94.04004 83.83691,94.53418 83.83691,95.35156 L83.83691,95.37011 C83.83691,96.22558 83.12402,96.73926 82.12597,96.73926 L80.08203,96.73926 L80.08203,96.73926 Z M72.4469,65.09534 C73.05231,65.70075 74.03217,65.70075 74.63757,65.09534 L89.09533,50.63758 C91.1491,48.58381 94.49078,48.58381 96.54351,50.63648 C97.14892,51.24195 98.12878,51.24195 98.73418,50.63648 C99.33965,50.03107 99.33965,49.05127 98.73418,48.44581 C95.47277,45.18434 90.16606,45.18543 86.90465,48.44691 L72.4469,62.90466 C71.84143,63.51007 71.84143,64.48987 72.4469,65.09534 Z M79.45648,69.91425 L93.91424,55.45649 C94.51971,54.85102 94.51971,53.87122 93.91424,53.26576 C93.30883,52.66035 92.32897,52.66035 91.72357,53.26576 L77.26581,67.72351 C75.21198,69.77734 71.87036,69.77734 69.81763,67.72461 C67.76386,65.67084 67.76386,62.32916 69.81763,60.27539 L81.44825,48.64477 C82.05366,48.0393 82.05366,47.0595 81.44825,46.45404 C80.84278,45.84863 79.86298,45.84863 79.25752,46.45404 L67.62689,58.08466 C64.36548,61.34613 64.36548,66.65387 67.62689,69.91529 C70.88837,73.17676 76.19507,73.17566 79.45648,69.91425 Z M89.09534,79.5531 L103.5531,65.09534 C104.15857,64.48987 104.15857,63.51007 103.5531,62.90467 C102.94769,62.2992 101.96783,62.2992 101.36243,62.90467 L86.90466,77.36243 C84.85089,79.4162 81.50921,79.4162 79.45648,77.36347 C78.85107,76.75806 77.87121,76.75806 77.26581,77.36347 C76.66034,77.96894 76.66034,78.94874 77.26581,79.55414 C80.52722,82.81561 85.83392,82.81451 89.09534,79.5531 Z M96.74249,81.5459 L108.37311,69.91528 C111.63452,66.65387 111.63452,61.34613 108.37311,58.08465 C105.11164,54.82324 99.80493,54.82427 96.54352,58.08575 L82.08575,72.54352 C81.48028,73.14893 81.48028,74.12879 82.08575,74.73419 C82.69116,75.33966 83.67102,75.33966 84.27642,74.73419 L98.73418,60.27643 C100.78801,58.22266 104.12963,58.22266 106.18236,60.27539 C108.23613,62.32916 108.23613,65.67084 106.18236,67.72461 L94.55176,79.35522 C93.94635,79.96063 93.94635,80.94049 94.55176,81.54589 C95.15723,82.15137 96.13702,82.15137 96.74249,81.5459 Z" id="squarespace-logo-stacked"></path>
        </g>
    </g>
</svg>